<?xml version="1.0" encoding="utf-8"?>
<!-- Generator: Adobe Illustrator 23.1.0, SVG Export Plug-In . SVG Version: 6.00 Build 0)  -->
<svg version="1.1" xmlns="http://www.w3.org/2000/svg" xmlns:xlink="http://www.w3.org/1999/xlink" x="0px" y="0px"
	 viewBox="0 0 1200 1200" style="enable-background:new 0 0 1200 1200;" xml:space="preserve">
<style type="text/css">
	.st0{fill:#F3F6FA;}
	.st1{fill:#D4F1F3;}
	.st2{fill:#C7D8FD;}
	.st3{fill:#FABBD8;}
	.st4{fill:#FCE088;}
	.st5{fill:#6179EF;}
	.st6{fill:#F1F6FF;}
	.st7{fill:#D0E2FF;}
	.st8{fill:url(#SVGID_1_);}
	.st9{opacity:0.19;fill:#0B1066;}
	.st10{fill:#99A2EB;}
	.st11{fill:#FFFFFF;}
	.st12{fill:#B4D1FF;}
	.st13{fill:#F2F5F9;}
	.st14{fill:none;stroke:#F5634A;stroke-miterlimit:10;}
	.st15{fill:#FFFFFF;stroke:#F5634A;stroke-miterlimit:10;}
	.st16{fill:url(#SVGID_2_);}
	.st17{fill:#856CF2;}
	.st18{fill:#F9BC00;}
	.st19{fill:#F16261;}
	.st20{fill:url(#SVGID_3_);}
	.st21{fill:url(#SVGID_4_);}
	.st22{fill:#DEE8FF;}
	.st23{fill:#B0CAE0;}
	.st24{fill:#53C8CE;}
	.st25{fill:#E5ECF5;}
	.st26{fill:#FACA00;}
	.st27{opacity:0.19;}
	.st28{fill:#0B1066;}
	.st29{fill:#5DD777;}
	.st30{fill:url(#SVGID_5_);}
	.st31{fill:#F5634A;}
	.st32{fill:url(#SVGID_6_);}
	.st33{fill:#FBD72A;}
	.st34{fill:url(#SVGID_7_);}
	.st35{fill:#B6D2FF;}
	.st36{fill:#F56463;}
	.st37{fill:#FDEBE5;}
	.st38{fill:#F9D62B;}
	.st39{fill:#FEFFF9;}
	.st40{fill:#1D2088;}
	.st41{fill:url(#SVGID_8_);}
	.st42{fill:#8E74F3;}
	.st43{fill:#F66463;}
	.st44{fill:#2C6FFF;}
	.st45{fill:#EFB594;}
	.st46{fill:#241F4B;}
	.st47{fill:#2942C5;}
	.st48{fill:url(#SVGID_9_);}
	.st49{fill:#150B48;}
	.st50{fill:#423566;}
	.st51{fill:#FBCFBC;}
	.st52{fill:#E04034;}
	.st53{fill:url(#SVGID_10_);}
	.st54{fill:#C1DEFF;}
	.st55{fill:#193C87;}
	.st56{fill:#E5E6EB;}
	.st57{fill:#D1AA05;}
	.st58{fill:url(#SVGID_11_);}
	.st59{fill:#9175F5;}
	.st60{fill:#8AAAFF;}
	.st61{fill:url(#SVGID_12_);}
	.st62{fill:#10224F;}
	.st63{fill:#211D42;}
	.st64{fill:#322D76;}
	.st65{fill:#E84538;}
	.st66{fill:url(#SVGID_13_);}
	.st67{fill:#222220;}
	.st68{fill:url(#SVGID_14_);}
	.st69{fill:#5B9BFD;}
	.st70{fill:#EC6941;}
	.st71{fill:#EB3F17;}
	.st72{fill:#E59A05;}
	.st73{fill:#1A96CF;}
	.st74{fill:#193D9D;}
	.st75{fill:#365ECE;}
	.st76{fill:url(#SVGID_15_);}
	.st77{fill:url(#SVGID_16_);}
	.st78{fill:#F385B5;}
	.st79{fill:#E26DA5;}
	.st80{fill:url(#SVGID_17_);}
	.st81{fill:#2A5CD0;}
	.st82{fill:#F7F8F8;}
	.st83{fill:url(#SVGID_18_);}
	.st84{fill:url(#SVGID_19_);}
	.st85{fill:#DCE7FF;}
	.st86{fill:#3970FF;}
	.st87{fill:url(#SVGID_20_);}
	.st88{fill:#FCBD1F;}
	.st89{clip-path:url(#SVGID_22_);fill:#718BEA;}
	.st90{clip-path:url(#SVGID_22_);fill:#708AEA;}
	.st91{clip-path:url(#SVGID_22_);fill:#6F89EB;}
	.st92{clip-path:url(#SVGID_22_);fill:#6E88EB;}
	.st93{clip-path:url(#SVGID_22_);fill:#6D87EB;}
	.st94{clip-path:url(#SVGID_22_);fill:#6C86EB;}
	.st95{clip-path:url(#SVGID_22_);fill:#6B85EC;}
	.st96{clip-path:url(#SVGID_22_);fill:#6A84EC;}
	.st97{clip-path:url(#SVGID_22_);fill:#6983EC;}
	.st98{clip-path:url(#SVGID_22_);fill:#6981ED;}
	.st99{clip-path:url(#SVGID_22_);fill:#6880ED;}
	.st100{clip-path:url(#SVGID_22_);fill:#677FED;}
	.st101{clip-path:url(#SVGID_22_);fill:#667EEE;}
	.st102{clip-path:url(#SVGID_22_);fill:#657DEE;}
	.st103{clip-path:url(#SVGID_22_);fill:#647CEE;}
	.st104{clip-path:url(#SVGID_22_);fill:#637BEE;}
	.st105{clip-path:url(#SVGID_22_);fill:#627AEF;}
	.st106{clip-path:url(#SVGID_22_);fill:#6179EF;}
	.st107{clip-path:url(#SVGID_24_);fill:#718BEA;}
	.st108{clip-path:url(#SVGID_24_);fill:#708AEA;}
	.st109{clip-path:url(#SVGID_24_);fill:#6F89EB;}
	.st110{clip-path:url(#SVGID_24_);fill:#6E88EB;}
	.st111{clip-path:url(#SVGID_24_);fill:#6D87EB;}
	.st112{clip-path:url(#SVGID_24_);fill:#6C86EB;}
	.st113{clip-path:url(#SVGID_24_);fill:#6B85EC;}
	.st114{clip-path:url(#SVGID_24_);fill:#6A84EC;}
	.st115{clip-path:url(#SVGID_24_);fill:#6983EC;}
	.st116{clip-path:url(#SVGID_24_);fill:#6981ED;}
	.st117{clip-path:url(#SVGID_24_);fill:#6880ED;}
	.st118{clip-path:url(#SVGID_24_);fill:#677FED;}
	.st119{clip-path:url(#SVGID_24_);fill:#667EEE;}
	.st120{clip-path:url(#SVGID_24_);fill:#657DEE;}
	.st121{clip-path:url(#SVGID_24_);fill:#647CEE;}
	.st122{clip-path:url(#SVGID_24_);fill:#637BEE;}
	.st123{clip-path:url(#SVGID_24_);fill:#627AEF;}
	.st124{clip-path:url(#SVGID_24_);fill:#6179EF;}
	.st125{fill:#6252DB;}
	.st126{fill:url(#SVGID_25_);}
	.st127{fill:url(#SVGID_26_);}
	.st128{clip-path:url(#SVGID_28_);fill:#202875;}
	.st129{clip-path:url(#SVGID_28_);fill:#202774;}
	.st130{clip-path:url(#SVGID_28_);fill:#202773;}
	.st131{clip-path:url(#SVGID_28_);fill:#1F2672;}
	.st132{clip-path:url(#SVGID_28_);fill:#1F2571;}
	.st133{clip-path:url(#SVGID_28_);fill:#1F2570;}
	.st134{clip-path:url(#SVGID_28_);fill:#1F246F;}
	.st135{clip-path:url(#SVGID_28_);fill:#1E236E;}
	.st136{clip-path:url(#SVGID_28_);fill:#1E236D;}
	.st137{clip-path:url(#SVGID_28_);fill:#1E226C;}
	.st138{clip-path:url(#SVGID_28_);fill:#1E226B;}
	.st139{clip-path:url(#SVGID_28_);fill:#1D216A;}
	.st140{clip-path:url(#SVGID_28_);fill:#1D2069;}
	.st141{clip-path:url(#SVGID_28_);fill:#1D2068;}
	.st142{clip-path:url(#SVGID_28_);fill:#1D1F67;}
	.st143{clip-path:url(#SVGID_28_);fill:#1C1E66;}
	.st144{clip-path:url(#SVGID_28_);fill:#1C1E65;}
	.st145{clip-path:url(#SVGID_28_);fill:#1C1D64;}
	.st146{clip-path:url(#SVGID_28_);fill:#1C1C63;}
	.st147{clip-path:url(#SVGID_28_);fill:#1B1C62;}
	.st148{clip-path:url(#SVGID_28_);fill:#1B1B61;}
	.st149{clip-path:url(#SVGID_28_);fill:#1B1A60;}
	.st150{clip-path:url(#SVGID_28_);fill:#1B1A5F;}
	.st151{clip-path:url(#SVGID_28_);fill:#1A195E;}
	.st152{clip-path:url(#SVGID_28_);fill:#1A195D;}
	.st153{clip-path:url(#SVGID_28_);fill:#1A185B;}
	.st154{clip-path:url(#SVGID_28_);fill:#1A175A;}
	.st155{clip-path:url(#SVGID_28_);fill:#191759;}
	.st156{clip-path:url(#SVGID_28_);fill:#191658;}
	.st157{clip-path:url(#SVGID_28_);fill:#191557;}
	.st158{clip-path:url(#SVGID_28_);fill:#191556;}
	.st159{clip-path:url(#SVGID_28_);fill:#181455;}
	.st160{clip-path:url(#SVGID_28_);fill:#181354;}
	.st161{clip-path:url(#SVGID_28_);fill:#181353;}
	.st162{clip-path:url(#SVGID_28_);fill:#181252;}
	.st163{clip-path:url(#SVGID_28_);fill:#171151;}
	.st164{clip-path:url(#SVGID_28_);fill:#171150;}
	.st165{clip-path:url(#SVGID_28_);fill:#17104F;}
	.st166{clip-path:url(#SVGID_28_);fill:#170F4E;}
	.st167{clip-path:url(#SVGID_28_);fill:#160F4D;}
	.st168{clip-path:url(#SVGID_28_);fill:#160E4C;}
	.st169{clip-path:url(#SVGID_28_);fill:#160E4B;}
	.st170{clip-path:url(#SVGID_28_);fill:#160D4A;}
	.st171{clip-path:url(#SVGID_28_);fill:#150C49;}
	.st172{clip-path:url(#SVGID_28_);fill:#150C48;}
	.st173{clip-path:url(#SVGID_28_);fill:#150B47;}
	.st174{clip-path:url(#SVGID_28_);fill:#150A46;}
	.st175{clip-path:url(#SVGID_28_);fill:#140A45;}
	.st176{clip-path:url(#SVGID_28_);fill:#140944;}
	.st177{fill:url(#SVGID_29_);}
	.st178{fill:#90BCFC;}
	.st179{fill:#191759;}
	.st180{fill:#B6D7FF;}
	.st181{fill:url(#SVGID_30_);}
	.st182{fill:url(#SVGID_31_);}
	.st183{fill:url(#SVGID_32_);}
	.st184{fill:url(#SVGID_33_);}
	.st185{fill:url(#SVGID_34_);}
	.st186{fill:#DBA203;}
	.st187{fill:url(#SVGID_35_);}
	.st188{fill:url(#SVGID_36_);}
	.st189{fill:url(#SVGID_37_);}
	.st190{fill:url(#SVGID_38_);}
	.st191{fill:url(#SVGID_39_);}
	.st192{fill:url(#SVGID_40_);}
	.st193{fill:#353B42;}
	.st194{fill:url(#SVGID_41_);}
	.st195{fill:url(#SVGID_42_);}
	.st196{fill:#F6AA94;}
	.st197{fill:url(#SVGID_43_);}
	.st198{fill:url(#SVGID_44_);}
	.st199{fill:#F3BE3E;}
	.st200{fill:#FACE46;}
	.st201{fill:url(#SVGID_45_);}
</style>
<g id="暂无内容">
</g>
<g id="图层_2">
	<g>
		<path class="st0" d="M554.4,260.94c-40.05-5.99-184.35-114.05-300.11-52.41C58.95,312.55,187.13,489.35,116.32,559.86
			c-72.37,72.07-145.59,299.64,70.09,388.6s513.98,53.97,608.49,10.37s139.88-56.57,249.11-108.52
			c158.12-75.2,192.41-624.59-125.78-614.01C863.99,236.3,686.98,280.78,554.4,260.94z"/>
		<g>
			<rect x="491.53" y="796.4" class="st5" width="181.06" height="128.91"/>
			<linearGradient id="SVGID_1_" gradientUnits="userSpaceOnUse" x1="233.8311" y1="616.1008" x2="930.282" y2="616.1008">
				<stop  offset="0" style="stop-color:#405AB1"/>
				<stop  offset="1" style="stop-color:#0B1066"/>
			</linearGradient>
			<path class="st8" d="M921.25,831.08H242.86c-4.99,0-9.03-4.04-9.03-9.03V410.15c0-4.99,4.04-9.03,9.03-9.03h678.39
				c4.99,0,9.03,4.04,9.03,9.03v411.89C930.28,827.04,926.24,831.08,921.25,831.08z"/>
			<path class="st11" d="M900.01,774.34H264.1c-0.55,0-0.99-0.44-0.99-0.99V427.54c0-0.55,0.44-0.99,0.99-0.99h635.92
				c0.55,0,0.99,0.44,0.99,0.99v345.81C901,773.9,900.56,774.34,900.01,774.34z"/>
			<linearGradient id="SVGID_2_" gradientUnits="userSpaceOnUse" x1="389.5465" y1="915.7873" x2="774.5667" y2="915.7873">
				<stop  offset="0" style="stop-color:#405AB1"/>
				<stop  offset="1" style="stop-color:#0B1066"/>
			</linearGradient>
			<path class="st16" d="M770.74,931.67H393.38c-2.12,0-3.83-1.71-3.83-3.83v-24.11c0-2.12,1.71-3.83,3.83-3.83h377.36
				c2.12,0,3.83,1.71,3.83,3.83v24.11C774.57,929.96,772.85,931.67,770.74,931.67z"/>
			<g>
				<rect x="613.5" y="512.28" class="st56" width="258.61" height="3.53"/>
				<rect x="613.5" y="541.08" class="st56" width="258.61" height="3.53"/>
				<rect x="613.5" y="569.88" class="st56" width="258.61" height="3.53"/>
				<rect x="613.5" y="595.31" class="st56" width="258.61" height="3.53"/>
				<rect x="613.5" y="624.26" class="st56" width="258.61" height="3.53"/>
				<rect x="613.5" y="653.21" class="st56" width="258.61" height="3.53"/>
				<rect x="613.5" y="682.16" class="st56" width="258.61" height="3.53"/>
				<rect x="613.5" y="711.11" class="st56" width="258.61" height="3.53"/>
				<rect x="613.5" y="740.06" class="st56" width="258.61" height="3.53"/>
			</g>
			<g>
				<rect x="292.01" y="512.28" class="st56" width="294.63" height="3.53"/>
				<rect x="292.01" y="541.08" class="st56" width="294.63" height="3.53"/>
				<rect x="292.01" y="569.88" class="st56" width="294.63" height="3.53"/>
				<rect x="292.01" y="595.31" class="st56" width="294.63" height="3.53"/>
				<rect x="292.01" y="624.26" class="st56" width="294.63" height="3.53"/>
				<rect x="292.01" y="653.21" class="st56" width="294.63" height="3.53"/>
				<rect x="292.01" y="682.16" class="st56" width="294.63" height="3.53"/>
				<rect x="292.01" y="711.11" class="st56" width="294.63" height="3.53"/>
			</g>
			<g>
				<rect x="627.86" y="488.62" class="st69" width="32.48" height="251.38"/>
				<rect x="627.86" y="488.62" class="st31" width="32.48" height="71.24"/>
				<rect x="678.77" y="488.62" class="st17" width="32.48" height="251.38"/>
				<rect x="678.77" y="488.62" class="st18" width="32.48" height="140.32"/>
				<rect x="829.63" y="488.62" class="st69" width="32.48" height="251.38"/>
				<rect x="829.63" y="488.62" class="st31" width="32.48" height="109.36"/>
				<rect x="727.81" y="488.62" class="st69" width="32.48" height="251.38"/>
				<rect x="727.81" y="488.62" class="st31" width="32.48" height="42.99"/>
				<rect x="778.72" y="488.62" class="st17" width="32.48" height="251.38"/>
				<rect x="778.72" y="488.62" class="st18" width="32.48" height="181.84"/>
			</g>
			<g>
				<polygon class="st193" points="586.64,741.82 290.25,741.82 290.25,490.76 293.77,490.76 293.77,738.3 586.64,738.3 				"/>
			</g>
			<rect x="316.24" y="562.42" class="st18" width="32.29" height="175.55"/>
			<rect x="370.52" y="638.47" class="st18" width="32.29" height="99.5"/>
			<rect x="533.37" y="610.35" class="st18" width="32.29" height="127.63"/>
			<rect x="424.8" y="538.12" class="st18" width="32.29" height="199.85"/>
			<rect x="479.08" y="670.46" class="st18" width="32.29" height="67.51"/>
		</g>
		<g class="st27">
			<path class="st28" d="M892.22,335.69c39.81,2.74,71.71,34.64,74.45,74.45h63.13c-2.87-74.59-62.99-134.72-137.58-137.58V335.69z"
				/>
			<path class="st28" d="M806.64,410.13c2.74-39.81,34.64-71.7,74.45-74.45v-63.13c-74.59,2.87-134.72,63-137.58,137.58H806.64z"/>
			<path class="st28" d="M881.09,495.71c-39.81-2.74-71.71-34.64-74.45-74.45h-63.13c2.87,74.59,63,134.72,137.58,137.58V495.71z"/>
			<path class="st28" d="M966.67,421.26c-2.74,39.81-34.64,71.7-74.45,74.45v63.13c74.59-2.87,134.72-62.99,137.58-137.58H966.67z"
				/>
		</g>
		<g>
			<linearGradient id="SVGID_3_" gradientUnits="userSpaceOnUse" x1="884.8256" y1="337.9209" x2="1015.5678" y2="337.9209">
				<stop  offset="0" style="stop-color:#718BEA"/>
				<stop  offset="1" style="stop-color:#6179EF"/>
			</linearGradient>
			<path class="st20" d="M884.83,332.55c37.83,2.61,68.14,32.92,70.75,70.75h59.99c-2.72-70.88-59.86-128.02-130.74-130.74V332.55z"
				/>
			<path class="st17" d="M803.5,403.29c2.61-37.83,32.92-68.14,70.75-70.75v-59.99c-70.88,2.72-128.02,59.86-130.74,130.74H803.5z"
				/>
			<linearGradient id="SVGID_4_" gradientUnits="userSpaceOnUse" x1="743.5083" y1="479.2365" x2="874.2505" y2="479.2365">
				<stop  offset="0" style="stop-color:#718BEA"/>
				<stop  offset="1" style="stop-color:#6179EF"/>
			</linearGradient>
			<path class="st21" d="M874.25,484.61c-37.83-2.61-68.14-32.92-70.75-70.75h-59.99c2.72,70.88,59.86,128.02,130.74,130.74V484.61z
				"/>
			<path class="st17" d="M955.57,413.87c-2.61,37.83-32.92,68.14-70.75,70.75v59.99c70.88-2.72,128.02-59.86,130.74-130.74H955.57z"
				/>
		</g>
		<path class="st9" d="M460.54,533.43c-84.35,0-152.97,68.62-152.97,152.96c0,33.73,11,64.93,29.57,90.25l-56.19,52.42l22.48,24.09
			l55.94-52.18c26.99,23.86,62.41,38.38,101.18,38.38c84.34,0,152.96-68.62,152.96-152.97C613.5,602.05,544.88,533.43,460.54,533.43
			z M460.54,806.4c-66.17,0-120.01-53.84-120.01-120.01s53.84-120.01,120.01-120.01s120.01,53.83,120.01,120.01
			S526.71,806.4,460.54,806.4z"/>
		
			<rect x="166.56" y="838.26" transform="matrix(0.7425 -0.6698 0.6698 0.7425 -516.1677 395.9335)" class="st9" width="180.75" height="62.24"/>
		<path class="st7" d="M449.67,533.43c-81.2,0-147.27,66.06-147.27,147.26c0,32.48,10.59,62.51,28.47,86.89l-54.1,50.47l21.64,23.19
			L352.26,791c25.98,22.97,60.08,36.95,97.41,36.95c81.2,0,147.26-66.06,147.26-147.27C596.93,599.49,530.87,533.43,449.67,533.43z
			 M449.67,796.23c-63.71,0-115.54-51.83-115.54-115.54s51.83-115.54,115.54-115.54s115.54,51.83,115.54,115.54
			S513.38,796.23,449.67,796.23z"/>
		
			<rect x="166.65" y="826.9" transform="matrix(0.7425 -0.6698 0.6698 0.7425 -508.6269 390.5153)" class="st31" width="174.02" height="59.93"/>
		<g>
			<path class="st31" d="M880.3,946.2c-47.06,0-85.34-38.29-85.34-85.34c0-47.06,38.29-85.34,85.34-85.34s85.34,38.28,85.34,85.34
				C965.64,907.92,927.36,946.2,880.3,946.2z M880.3,810.77c-27.62,0-50.09,22.47-50.09,50.09c0,27.62,22.47,50.09,50.09,50.09
				c27.62,0,50.09-22.47,50.09-50.09C930.39,833.24,907.92,810.77,880.3,810.77z"/>
		</g>
		<path class="st18" d="M880.3,775.52C880.3,775.52,880.3,775.52,880.3,775.52l0,35.25c0,0,0,0,0,0c16.29,0,30.75,7.86,39.9,19.94
			l29.54-19.36C934.26,789.68,908.91,775.52,880.3,775.52z"/>
		<g>
			<path class="st17" d="M840.21,874.4l3.17-4.32c1.74,1.66,3.75,2.78,5.99,2.78c2.66,0,4.4-1.12,4.4-3.28
				c0-2.47-1.31-3.94-7.34-3.94v-4.83c4.91,0,6.45-1.5,6.45-3.78c0-1.97-1.16-3.05-3.28-3.05c-1.93,0-3.4,0.89-5.14,2.39l-3.47-4.21
				c2.66-2.24,5.52-3.55,8.92-3.55c5.95,0,9.85,2.78,9.85,7.92c0,2.86-1.55,5.1-4.63,6.33v0.19c3.2,0.96,5.56,3.28,5.56,6.99
				c0,5.37-4.91,8.38-10.62,8.38C845.51,878.42,842.3,876.84,840.21,874.4z"/>
			<path class="st17" d="M864.39,863.36c0-9.89,4.09-14.75,10.16-14.75c6.07,0,10.2,4.94,10.2,14.75c0,9.89-4.13,15.06-10.2,15.06
				C868.48,878.42,864.39,873.24,864.39,863.36z M878.26,863.36c0-7.84-1.66-9.46-3.71-9.46c-2.04,0-3.67,1.62-3.67,9.46
				c0,7.88,1.62,9.73,3.67,9.73C876.59,873.09,878.26,871.23,878.26,863.36z"/>
			<path class="st17" d="M887.41,857.68c0-5.76,3.05-9.08,7.26-9.08c4.21,0,7.3,3.32,7.3,9.08c0,5.75-3.09,9.19-7.3,9.19
				C890.46,866.87,887.41,863.43,887.41,857.68z M897.18,857.68c0-4.02-1.16-5.29-2.51-5.29c-1.35,0-2.51,1.27-2.51,5.29
				c0,4.01,1.16,5.4,2.51,5.4C896.02,863.09,897.18,861.7,897.18,857.68z M911.16,848.6h3.94l-15.53,29.81h-3.9L911.16,848.6z
				 M908.8,869.23c0-5.76,3.09-9.12,7.26-9.12c4.17,0,7.26,3.36,7.26,9.12s-3.09,9.19-7.26,9.19
				C911.89,878.42,908.8,874.98,908.8,869.23z M918.53,869.23c0-4.06-1.12-5.29-2.47-5.29c-1.35,0-2.55,1.24-2.55,5.29
				c0,4.02,1.2,5.37,2.55,5.37C917.41,874.59,918.53,873.24,918.53,869.23z"/>
		</g>
		<path class="st9" d="M269.22,289.67v83.83h83.83C353.05,327.2,315.52,289.67,269.22,289.67z"/>
		<path class="st9" d="M249.61,392.49v-98.27c-54.27,0-98.27,44-98.27,98.27c0,54.27,44,98.27,98.27,98.27
			c54.27,0,98.27-44,98.27-98.27h-1.81H249.61z"/>
		<path class="st18" d="M261.63,289.67v78.43h78.43C340.07,324.78,304.95,289.67,261.63,289.67z"/>
		<path class="st24" d="M243.29,385.87v-91.95c-50.78,0-91.95,41.17-91.95,91.95c0,50.78,41.17,91.95,91.95,91.95
			c50.78,0,91.95-41.17,91.95-91.95h-1.69H243.29z"/>
		<g>
			<g>
				<polygon class="st17" points="339.75,496.56 334.34,492.03 392.48,422.7 446.3,469.69 513.91,392.79 544.57,419.69 
					615.25,338.18 662.55,380.13 750.79,276.93 756.15,281.51 663.24,390.17 615.91,348.18 545.25,429.67 514.56,402.74 
					446.96,479.61 393.26,432.75 				"/>
			</g>
			<circle class="st18" cx="752.24" cy="279.31" r="13.05"/>
			<circle class="st18" cx="662.39" cy="382.93" r="13.05"/>
			<circle class="st18" cx="615.43" cy="344.32" r="13.05"/>
			<circle class="st18" cx="514.09" cy="398.9" r="13.05"/>
			<circle class="st18" cx="545.23" cy="422.85" r="13.05"/>
			<circle class="st18" cx="448" cy="473.31" r="13.05"/>
			<circle class="st18" cx="393.36" cy="428.25" r="13.05"/>
		</g>
		<g>
			<path class="st51" d="M961.53,543.47c-2.23-2.13-5.17-8.77-2.51-15.28c2.65-6.51-0.42-9.7-2.37-9.17
				c-1.95,0.53-2.74,2.03-3.58,4.02c-0.84,1.99-2.3,3.19-4.92,1.54s-12.36-8.52-15.71-2.29s0.16,6.53-1.15,8.92
				c-1.31,2.39-1.73,3.83-1.26,5.82s-1.93,3.37-0.19,6.43c1.74,3.06,3.9,7.04,8.93,7.77c5.03,0.73,12.98,0.73,15.5,2.99
				c2.51,2.26,11.73-6.84,11.73-6.84L961.53,543.47z"/>
			<path class="st196" d="M1023.94,727.45c0,0-1.68,27.63,0,75.98c1.68,48.35-0.74,154.09-0.74,154.09h16.38
				c0,0,20.1-87.67,13.4-115.04c-2.23-16.74,5.58-89,5.58-89L1023.94,727.45z"/>
			<path class="st51" d="M1085.37,758.27c0,0-2.79,27.63,2.79,47.29s24.01,55.26,13.96,151.96c-10.61,13.81-18.22,6.13-18.22,6.13
				s-7.47-77.86-14.73-104.96c-7.26-27.1-19.55-64.82-23.46-88.2c-3.91-23.38,3.35-43.04,3.35-43.04L1085.37,758.27z"/>
			<path class="st63" d="M1021.01,949.82h20.94c0,0,0.56,9.3,0,15.01c-0.56,5.71-2.09,10.1-2.09,10.1h-11.17v-6.38
				c0,0-5.58,6.38-11.73,6.38s-30.72,0-30.72,0s-0.42-7.17,7.68-8.37C1002.02,965.36,1016.4,957.13,1021.01,949.82z"/>
			<path class="st63" d="M1082.3,949.82h20.94c0,0,0.56,9.3,0,15.01c-0.56,5.71-2.09,10.1-2.09,10.1h-11.17v-6.38
				c0,0-5.58,6.38-11.73,6.38c-6.14,0-30.72,0-30.72,0s-0.42-7.17,7.68-8.37C1063.31,965.36,1077.69,957.13,1082.3,949.82z"/>
			<path class="st63" d="M1025.9,632.87c0,0-14.24,27.1-14.24,53.4s0,64.29,0,74.65c0,10.36,7.18,22.58,40.21,22.58
				c33.03,0,45.79,2.92,46.07-8.77c0.28-11.69-0.28-38.79,5.03-56.06c5.31-17.27,5.86-65.36-16.75-80.5S1025.9,632.87,1025.9,632.87
				z"/>
			<linearGradient id="SVGID_5_" gradientUnits="userSpaceOnUse" x1="1012.3154" y1="498.3286" x2="1106.1219" y2="498.3286">
				<stop  offset="0" style="stop-color:#202875"/>
				<stop  offset="1" style="stop-color:#140944"/>
			</linearGradient>
			<path class="st30" d="M1022.76,466.76c-9.42,11.56-30.58,70.54,40,76.71c21.15,0,45.24-16.94,43.25-38.36
				c-1.99-21.42-36.97-59.61-68.87-50.58C1029.32,457.53,1022.76,466.76,1022.76,466.76z"/>
			<path class="st51" d="M1026.6,478.52c0,0-13.82,45.96,20.66,47.42c0,7.17,1.82,11.16-3.07,12.75
				c-4.89,1.59-16.2,18.33-14.38,30.15c11.45,2.26,40.49-30.55,40.49-30.55s-11.26-8.77-11.08-16.74
				c0.19-5.58,4.17-10.23,6.54-13.81c2.37-3.59,1.75-14.61-3.91-13.95s-4.47,7.51-4.47,7.51s-11.1-17.73-25.48-23.45
				c0.7,6.24,7.12,10.23,7.12,10.23S1031.9,488.23,1026.6,478.52z"/>
			<path class="st51" d="M975.95,608.93c0,0-10.68,2.19-12.98,1c-2.3-1.2-9.01-2.28-9.95-6.28c-0.94-4-5.76-6.59-7.54-4.8
				c-1.78,1.79-3.04,2.59-6.18,2.69s-8.69,3.59-6.91,9.96c1.78,6.38,0.84,4.41,0.52,6.5c-0.31,2.09-1.47,4.18,2.83,6.87
				c4.29,2.69,8.17,2.99,16.34,1.79c8.17-1.2,27.22-3.49,27.22-3.49L975.95,608.93z"/>
			<path class="st31" d="M1019.47,568.96l-10.05,12.64l-47.47-41.71l-13.12,14.88c0,0,41.37,48.86,56.68,56.06
				c10.33,1.59,34.62-6.64,34.62-6.64L1019.47,568.96z"/>
			<path class="st31" d="M1045.31,538.22c0,0-6.2,26.38,22.9-1.72c14.09,3.39,31.96,14.41,20.93,38.96
				c-23.87,53.16,6.49,63.86,9.63,68.44c3.14,4.58,4.82,24.31-42.51,16.94c-27.02-4.98-34.55-12.75-38.95-15.74s-3.35-6.29,0-13.71
				c3.35-7.41,6.7-22.16-0.21-39.49c-5.45-9.36-9.69-25.9,20.05-54C1038.83,536.3,1045.47,537.23,1045.31,538.22z"/>
			<path class="st65" d="M1086.64,569.69c0,0-19.25,48.28-45.38,57.65c-12.91,3.61-21.95-2.71-23.8-9.03
				C1031.66,604.97,1086.64,569.69,1086.64,569.69z"/>
			<path class="st31" d="M1064.71,555.03c7.54-8.5,15.64-12.22,19.27-10.1s14.24,14.08,0,32.41
				c-14.24,18.33-33.51,41.71-55.29,44.63c-21.78,2.92-56.13,3.72-56.13,3.72s-2.23-7.7,0-19.13c15.08-1.59,52.85-10.36,58.82-15.14
				C1037.35,586.65,1064.71,555.03,1064.71,555.03z"/>
		</g>
	</g>
</g>
</svg>
